HIERARCHY
ROOT joint_0
{
	OFFSET 0.000000 0.000000 0.000000
	CHANNELS 6 Xposition Yposition Zposition Zrotation Yrotation Xrotation 
	JOINT joint_1
	{
		OFFSET 14.113007 -2.961990 123.953979
		CHANNELS 3 Zrotation Yrotation Xrotation
		JOINT joint_2
		{
			OFFSET 0.764000 -2.434006 113.871948
			CHANNELS 3 Zrotation Yrotation Xrotation
			JOINT joint_3
			{
				OFFSET 0.186996 -2.169998 113.753052
				CHANNELS 3 Zrotation Yrotation Xrotation
				JOINT joint_4
				{
					OFFSET 16.096001 -2.720001 160.853027
					CHANNELS 3 Zrotation Yrotation Xrotation
					JOINT joint_5
					{
						OFFSET 34.392006 -0.188995 92.567017
						CHANNELS 3 Zrotation Yrotation Xrotation
						End Site
						{
							OFFSET 0.000000 0.000000 0.000000
						}
					}
				}
				JOINT joint_6
				{
					OFFSET 9.183998 -36.684006 89.597046
					CHANNELS 3 Zrotation Yrotation Xrotation
					JOINT joint_7
					{
						OFFSET 0.486000 -164.365997 -28.984009
						CHANNELS 3 Zrotation Yrotation Xrotation
						JOINT joint_8
						{
							OFFSET 38.899002 -34.967010 -291.651978
							CHANNELS 3 Zrotation Yrotation Xrotation
							JOINT joint_9
							{
								OFFSET 41.714005 -45.890991 -258.857056
								CHANNELS 3 Zrotation Yrotation Xrotation
								End Site
								{
									OFFSET 0.000000 0.000000 0.000000
								}
							}
						}
					}
				}
				JOINT joint_10
				{
					OFFSET 8.867004 33.650002 90.817993
					CHANNELS 3 Zrotation Yrotation Xrotation
					JOINT joint_11
					{
						OFFSET 0.018997 164.299999 -29.368042
						CHANNELS 3 Zrotation Yrotation Xrotation
						JOINT joint_12
						{
							OFFSET 29.440994 30.887997 -293.216919
							CHANNELS 3 Zrotation Yrotation Xrotation
							JOINT joint_13
							{
								OFFSET 46.174011 54.490005 -256.422058
								CHANNELS 3 Zrotation Yrotation Xrotation
								End Site
								{
									OFFSET 0.000000 0.000000 0.000000
								}
							}
						}
					}
				}
			}
		}
	}
	JOINT joint_14
	{
		OFFSET -2.264000 -89.466995 -116.150024
		CHANNELS 3 Zrotation Yrotation Xrotation
		JOINT joint_15
		{
			OFFSET -16.400993 -17.452988 -493.781982
			CHANNELS 3 Zrotation Yrotation Xrotation
			JOINT joint_16
			{
				OFFSET -50.497004 -13.404022 -424.754013
				CHANNELS 3 Zrotation Yrotation Xrotation
				JOINT joint_17
				{
					OFFSET 198.546007 -19.341003 -89.309000
					CHANNELS 3 Zrotation Yrotation Xrotation
					End Site
					{
						OFFSET 0.000000 0.000000 0.000000
					}
				}
			}
		}
	}
	JOINT joint_18
	{
		OFFSET -0.867996 96.016006 -110.817993
		CHANNELS 3 Zrotation Yrotation Xrotation
		JOINT joint_19
		{
			OFFSET -10.130997 24.658998 -493.645020
			CHANNELS 3 Zrotation Yrotation Xrotation
			JOINT joint_20
			{
				OFFSET -48.871004 19.434999 -424.714005
				CHANNELS 3 Zrotation Yrotation Xrotation
				JOINT joint_21
				{
					OFFSET 195.579996 24.926001 -94.327003
					CHANNELS 3 Zrotation Yrotation Xrotation
					End Site
					{
						OFFSET 0.000000 0.000000 0.000000
					}
				}
			}
		}
	}
}
MOTION
Frames: 16
Frame Time: 0.016667
82.752000 -156.360000 1140.217040 -2.036301 -0.882821 -0.944849 -0.441697 0.030758 1.080865 -0.434071 -0.000492 -0.273415 -0.434512 0.016892 0.160321 -0.962540 1.426869 2.618521 0.000000 0.000000 0.000000 -1.242085 2.773321 -0.610885 0.064440 2.555867 1.916886 0.462986 1.148709 4.036600 0.000000 0.000000 0.000000 -1.576159 1.225807 1.148059 0.259229 1.553461 0.666369 -0.407669 5.732572 -10.554174 0.000000 0.000000 0.000000 -1.467688 2.166169 0.734431 -1.456274 1.977225 0.380719 -1.180068 -2.572709 -0.780658 0.000000 0.000000 0.000000 -1.201090 0.842078 1.944147 -1.122060 1.704623 -0.028740 -1.313079 -2.970446 -0.254986 0.000000 0.000000 0.000000 
83.515000 -156.360990 1140.322020 -2.061929 -0.800632 -0.938806 -0.446766 0.032589 1.079521 -0.439163 -0.000828 -0.273210 -0.439614 0.016084 0.159772 -0.963485 1.338823 2.620567 0.000000 0.000000 0.000000 -1.241274 2.796574 -0.610587 0.067481 2.579171 1.920319 0.473094 1.119792 4.065414 0.000000 0.000000 0.000000 -1.562704 1.262939 1.144451 0.258001 1.588075 0.640040 -0.413348 5.710211 -10.573052 0.000000 0.000000 0.000000 -1.461625 2.114553 0.722896 -1.452464 1.973270 0.390119 -1.176178 -2.555706 -0.777234 0.000000 0.000000 0.000000 -1.193361 0.804177 1.932283 -1.113714 1.685132 -0.021641 -1.302165 -2.947731 -0.252622 0.000000 0.000000 0.000000 
84.424000 -156.366000 1140.416020 -2.092656 -0.698782 -0.931967 -0.452821 0.031405 1.078482 -0.445138 0.000588 -0.272296 -0.445663 0.013558 0.158674 -0.964947 1.230969 2.623896 0.000000 0.000000 0.000000 -1.244365 2.825010 -0.612496 0.070785 2.607015 1.920964 0.485155 1.084295 4.098582 0.000000 0.000000 0.000000 -1.546715 1.307539 1.138680 0.257568 1.629858 0.615186 -0.419435 5.685862 -10.594511 0.000000 0.000000 0.000000 -1.453480 2.048733 0.709798 -1.447169 1.970566 0.400865 -1.170433 -2.545014 -0.773589 0.000000 0.000000 0.000000 -1.183584 0.757669 1.919352 -1.103301 1.657579 -0.014587 -1.289025 -2.926932 -0.248943 0.000000 0.000000 0.000000 
85.580000 -156.395000 1140.500980 -2.133016 -0.570460 -0.925257 -0.460056 0.033394 1.080309 -0.452355 0.000807 -0.274050 -0.452897 0.013251 0.159137 -0.967500 1.093516 2.630046 0.000000 0.000000 0.000000 -1.246326 2.859942 -0.616729 0.074131 2.641702 1.920734 0.497134 1.048399 4.130741 0.000000 0.000000 0.000000 -1.519549 1.359207 1.128105 0.259108 1.677054 0.593780 -0.423454 5.668468 -10.615126 0.000000 0.000000 0.000000 -1.442665 1.969903 0.698447 -1.439326 1.961680 0.410206 -1.162436 -2.537734 -0.769257 0.000000 0.000000 0.000000 -1.171675 0.707747 1.907766 -1.091632 1.609191 -0.006721 -1.273634 -2.906280 -0.244163 0.000000 0.000000 0.000000 
86.956000 -156.448000 1140.581050 -2.185001 -0.418520 -0.919281 -0.467352 0.046532 1.084633 -0.459942 -0.002420 -0.277038 -0.460382 0.016139 0.160334 -0.971810 0.921918 2.640769 0.000000 0.000000 0.000000 -1.245948 2.900333 -0.618287 0.077190 2.682453 1.913558 0.510124 1.008727 4.164744 0.000000 0.000000 0.000000 -1.485692 1.416190 1.107608 0.263439 1.728851 0.581910 -0.425090 5.659601 -10.636369 0.000000 0.000000 0.000000 -1.428854 1.877512 0.690136 -1.428664 1.950433 0.416806 -1.152021 -2.533168 -0.764096 0.000000 0.000000 0.000000 -1.158163 0.654936 1.900164 -1.079039 1.542281 -0.001189 -1.256632 -2.883349 -0.238898 0.000000 0.000000 0.000000 
88.579000 -156.526000 1140.654050 -2.246940 -0.239709 -0.913123 -0.476005 0.061509 1.089051 -0.468936 -0.005070 -0.279504 -0.469266 0.020010 0.162157 -0.977074 0.720802 2.653944 0.000000 0.000000 0.000000 -1.243542 2.947226 -0.620278 0.080182 2.730249 1.903158 0.523090 0.968682 4.198013 0.000000 0.000000 0.000000 -1.439655 1.480405 1.080769 0.269894 1.786072 0.574986 -0.424590 5.658084 -10.656975 0.000000 0.000000 0.000000 -1.412367 1.771470 0.682982 -1.415499 1.933276 0.422306 -1.139400 -2.530957 -0.758165 0.000000 0.000000 0.000000 -1.142689 0.598396 1.893451 -1.065373 1.454154 0.005218 -1.237447 -2.858829 -0.232783 0.000000 0.000000 0.000000 
90.622000 -156.641010 1140.709960 -2.315120 -0.021921 -0.905040 -0.484113 0.069246 1.095488 -0.477193 -0.006263 -0.283511 -0.477467 0.022690 0.164035 -0.983311 0.494514 2.669596 0.000000 0.000000 0.000000 -1.257964 3.007004 -0.636142 0.084262 2.788133 1.906374 0.531591 0.943347 4.220382 0.000000 0.000000 0.000000 -1.380048 1.555284 1.059035 0.277544 1.851734 0.559910 -0.420837 5.667066 -10.671106 0.000000 0.000000 0.000000 -1.394383 1.657903 0.674417 -1.400333 1.891511 0.428975 -1.125280 -2.530401 -0.751709 0.000000 0.000000 0.000000 -1.124895 0.544988 1.880352 -1.052037 1.323726 0.022966 -1.215376 -2.834392 -0.225271 0.000000 0.000000 0.000000 
93.070000 -156.781010 1140.745970 -2.389468 0.233449 -0.893989 -0.491791 0.068736 1.103443 -0.484792 -0.004645 -0.287446 -0.485147 0.020793 0.166484 -0.989636 0.251993 2.685332 0.000000 0.000000 0.000000 -1.292398 3.079197 -0.668214 0.089364 2.855140 1.927054 0.532524 0.940003 4.221491 0.000000 0.000000 0.000000 -1.298490 1.638747 1.041223 0.286848 1.922344 0.532247 -0.410511 5.696344 -10.668598 0.000000 0.000000 0.000000 -1.374756 1.537080 0.661318 -1.383194 1.825652 0.439081 -1.109488 -2.530085 -0.744511 0.000000 0.000000 0.000000 -1.104577 0.496064 1.856571 -1.039114 1.149847 0.056253 -1.190017 -2.809808 -0.216193 0.000000 0.000000 0.000000 
95.938000 -156.959000 1140.765990 -2.470466 0.527709 -0.881274 -0.499842 0.061309 1.111934 -0.492607 -0.001520 -0.291109 -0.493085 0.017856 0.168752 -0.996347 -0.018187 2.701824 0.000000 0.000000 0.000000 -1.340404 3.163638 -0.710600 0.095381 2.932291 1.956808 0.528835 0.951408 4.211245 0.000000 0.000000 0.000000 -1.199369 1.733109 1.025772 0.297434 2.000943 0.499236 -0.396996 5.735739 -10.659625 0.000000 0.000000 0.000000 -1.353468 1.408848 0.646929 -1.363837 1.734844 0.450045 -1.092151 -2.529285 -0.736551 0.000000 0.000000 0.000000 -1.081975 0.450610 1.826212 -1.026628 0.932967 0.101238 -1.161759 -2.782568 -0.206049 0.000000 0.000000 0.000000 
99.443000 -157.227010 1140.771000 -2.557801 0.878671 -0.868101 -0.507572 0.040466 1.117855 -0.499840 0.001580 -0.295142 -0.500457 0.013902 0.170622 -1.003578 -0.333981 2.719228 0.000000 0.000000 0.000000 -1.403286 3.270244 -0.764144 0.103117 3.029308 1.991110 0.525538 0.968874 4.209987 0.000000 0.000000 0.000000 -1.095716 1.851485 1.020611 0.307410 2.102684 0.465818 -0.388862 5.760007 -10.668398 0.000000 0.000000 0.000000 -1.331138 1.276414 0.637213 -1.341702 1.597565 0.457928 -1.073894 -2.524681 -0.727776 0.000000 0.000000 0.000000 -1.057221 0.411030 1.794792 -1.015738 0.652703 0.155464 -1.130850 -2.747554 -0.195601 0.000000 0.000000 0.000000 
103.605000 -157.590000 1140.758060 -2.649554 1.295033 -0.852702 -0.516192 0.005116 1.115662 -0.507722 0.004384 -0.297266 -0.508487 0.008661 0.172458 -1.013652 -0.715775 2.743723 0.000000 0.000000 0.000000 -1.498397 3.398388 -0.836251 0.114735 3.142437 2.034321 0.524038 0.995682 4.228999 0.000000 0.000000 0.000000 -0.964362 1.997170 1.032522 0.313278 2.226225 0.430377 -0.392023 5.760033 -10.715808 0.000000 0.000000 0.000000 -1.309287 1.137431 0.632127 -1.317778 1.399452 0.460117 -1.056714 -2.508681 -0.718336 0.000000 0.000000 0.000000 -1.029426 0.380662 1.759299 -1.007114 0.283316 0.220437 -1.096055 -2.691794 -0.185893 0.000000 0.000000 0.000000 
108.404000 -158.043000 1140.732060 -2.747970 1.767288 -0.837624 -0.525237 -0.042220 1.110696 -0.515780 0.007889 -0.299302 -0.516739 0.000990 0.173962 -1.024108 -1.145913 2.768736 0.000000 0.000000 0.000000 -1.605937 3.548375 -0.911803 0.128208 3.275790 2.071793 0.522956 1.028769 4.257672 0.000000 0.000000 0.000000 -0.825106 2.167361 1.048592 0.318459 2.372860 0.400838 -0.400771 5.744427 -10.781059 0.000000 0.000000 0.000000 -1.286217 0.995360 0.632127 -1.290764 1.153653 0.458776 -1.038836 -2.482605 -0.707549 0.000000 0.000000 0.000000 -0.999225 0.357579 1.722589 -1.000047 -0.151230 0.295312 -1.058390 -2.620316 -0.176762 0.000000 0.000000 0.000000 
114.000000 -158.632000 1140.701050 -2.859804 2.286134 -0.830592 -0.532386 -0.103477 1.109639 -0.521596 0.012468 -0.300773 -0.522800 -0.009128 0.173586 -1.026672 -1.590168 2.771995 0.000000 0.000000 0.000000 -1.666791 3.731874 -0.960976 0.139347 3.451749 2.075220 0.522808 1.049912 4.281280 0.000000 0.000000 0.000000 -0.752498 2.365574 1.045953 0.331205 2.560621 0.394826 -0.405708 5.715598 -10.822991 0.000000 0.000000 0.000000 -1.257006 0.862795 0.644357 -1.255877 0.879084 0.456074 -1.014547 -2.458890 -0.694031 0.000000 0.000000 0.000000 -0.968741 0.337320 1.699417 -0.993421 -0.598078 0.372808 -1.021456 -2.558105 -0.166749 0.000000 0.000000 0.000000 
120.468000 -159.388000 1140.625980 -2.986683 2.861478 -0.831588 -0.535940 -0.185671 1.109079 -0.523248 0.021220 -0.297383 -0.524839 -0.024856 0.169751 -1.017518 -2.084823 2.743422 0.000000 0.000000 0.000000 -1.651745 3.967798 -0.957657 0.148058 3.694160 2.020425 0.530427 1.026874 4.305699 0.000000 0.000000 0.000000 -0.799190 2.597388 1.002499 0.358044 2.805395 0.428668 -0.400817 5.686224 -10.834904 0.000000 0.000000 0.000000 -1.223578 0.747485 0.670408 -1.214008 0.552921 0.453329 -0.985073 -2.443002 -0.678846 0.000000 0.000000 0.000000 -0.937883 0.352595 1.684649 -0.993232 -1.134731 0.469042 -0.985373 -2.491012 -0.157701 0.000000 0.000000 0.000000 
127.733000 -160.281010 1140.547000 -3.127908 3.482389 -0.841728 -0.537239 -0.279454 1.110960 -0.522335 0.031517 -0.291975 -0.524417 -0.046323 0.164059 -1.000433 -2.594054 2.693691 0.000000 0.000000 0.000000 -1.586862 4.239016 -0.915828 0.157213 3.980776 1.919756 0.539427 0.990801 4.325679 0.000000 0.000000 0.000000 -0.915667 2.858355 0.933922 0.391700 3.092694 0.488060 -0.392274 5.643093 -10.823351 0.000000 0.000000 0.000000 -1.183602 0.643384 0.708577 -1.163766 0.195662 0.448855 -0.949535 -2.418287 -0.659986 0.000000 0.000000 0.000000 -0.906235 0.372690 1.682811 -0.993342 -1.686041 0.569215 -0.949443 -2.422159 -0.148877 0.000000 0.000000 0.000000 
135.729000 -161.265000 1140.595950 -3.282461 4.111579 -0.865958 -0.543124 -0.371483 1.123385 -0.525956 0.040375 -0.293990 -0.528439 -0.064364 0.160998 -0.977980 -2.976635 2.628894 0.000000 0.000000 0.000000 -1.482959 4.500931 -0.868567 0.165955 4.264758 1.802808 0.530675 1.016437 4.310694 0.000000 0.000000 0.000000 -1.011937 3.136811 0.874006 0.419089 3.392686 0.547106 -0.390506 5.547485 -10.770402 0.000000 0.000000 0.000000 -1.127534 0.538740 0.756684 -1.098971 -0.108771 0.439633 -0.900681 -2.365149 -0.632342 0.000000 0.000000 0.000000 -0.876369 0.291881 1.719400 -0.974786 -1.967132 0.617824 -0.915578 -2.409498 -0.133863 0.000000 0.000000 0.000000 
